<svg xmlns="http://www.w3.org/2000/svg" viewBox="0 0 512 512" fill="#0ea5e9">
  <path d="M256 0C226.3 12.2 200.8 27.9 180.9 43.6c-14.2 11.2-26 22.9-34.8 33.8c-8.7 10.9-14.3 21-14.3 30.3c0 8.8 7.2 16 16 16c.3 0 .6 0 .8 0c6.4-7.3 13.2-13.0 20.3-17.6c8.6-5.6 17.5-9.4 26.7-11.4C211.1 91.9 232.4 91 256 91s44.9 .9 60.3 3.7c9.2 1.9 18.1 5.8 26.7 11.4c7.2 4.6 13.9 10.3 20.3 17.6c.3 0 .6 0 .8 0c8.8 0 16-7.2 16-16c0-9.3-5.6-19.5-14.3-30.3c-8.8-10.9-20.6-22.7-34.8-33.8C310.2 27.9 284.7 12.2 256 0zm132.8 213c-3.1-7.9-10.6-13-19.2-13h-26.9c-15.4 34.6-50 58.1-90.6 58.5c-2-.1-3.9-.5-5.9-.5c-31.1 0-59.2 13.1-78.9 34.2l8.1 17.2c19.8-19.4 46.9-31.3 76.9-31.3c4.2 0 8.4 .2 12.6 .7c4.4 .5 8.7-.5 12.5-2.7c11.7-6.9 27.9-9.1 41.7-9.1c21.3 0 40.7 4.9 56 12.5c15.7 7.8 26.6 18.5 30.8 29.2c.3 .8 .7 1.4 1 1.9c3.5-1.1 6.8-2.5 9.9-4.2c10.5-5.7 19-14.1 15.4-31.7c-.7-3.5-1.8-6.9-3.3-10.1l-9.6-24.2c-5-12.6-5-26.4 0-38.9l3.3-8.3zm-235.5 74.2C133.5 319.8 128 350.9 128 384c0 35.5 7.4 66.3 19.3 90.6C159.3 498.1 175.8 512 192 512c16.2 0 32.7-13.9 44.7-37.4c11.9-24.4 19.3-55.1 19.3-90.6c0-33.1-5.5-64.2-25.3-96.8z"/>
</svg>